#
#
#

mtllib room.mtl


#
#  网格
#
g  网格

v -100.000000 -5.500008 -84.999992
v -100.000000 -0.499993 84.999985
v -100.000000 -0.500007 -85.000000
v -100.000000 -5.499992 84.999992
v 100.000000 -0.499993 84.999985
v 100.000000 -5.499992 84.999992
v 100.000000 -0.500007 -85.000000
v 100.000000 -5.500008 -84.999992
v 100.000000 64.500000 -85.000015
v 100.000000 -5.500000 -80.000008
v 100.000000 -5.500000 -85.000008
v 100.000000 64.500000 -80.000015
v -100.000000 -5.500000 -79.999985
v -100.000000 64.500000 -79.999992
v -100.000000 -5.500000 -84.999985
v -100.000000 64.500000 -84.999992
v 100.000000 64.500000 80.032791
v 100.000000 -5.500000 85.032791
v 100.000000 -5.500000 80.032791
v 100.000000 64.500000 85.032791
v -100.000000 -5.500000 84.901611
v -100.000000 64.500000 84.901604
v -100.000000 -5.500000 80.032814
v -100.000000 64.500000 80.032806
v 99.999992 64.499992 -85.000000
v 100.000008 -5.499992 85.000000
v 99.999992 -5.500008 -85.000000
v 100.000008 64.500008 85.000000
v 95.000008 -5.499992 85.000000
v 95.000008 64.500008 85.000000
v 94.999992 -5.500008 -85.000000
v 94.999992 64.499992 -85.000000
v -95.000008 64.499992 -85.000000
v -94.999992 -5.499992 85.000000
v -95.000008 -5.500008 -85.000000
v -94.999992 64.500008 85.000000
v -99.999992 -5.499992 85.000000
v -99.999992 64.500008 85.000000
v -100.000008 -5.500008 -85.000000
v -100.000008 64.499992 -85.000000
v -100.000000 17.000000 -38.999996
v -100.000000 -3.000000 -78.999985
v -100.000000 -3.000000 -38.999996
v -100.000000 17.000000 -78.999992
v 100.000000 -3.000000 -78.999992
v 100.000000 17.000000 -78.999992
v 100.000000 -3.000000 -38.999996
v 100.000000 17.000000 -38.999996
v 99.999985 64.499992 -85.000015
v 100.000000 59.500004 14.999985
v 99.999985 59.499996 -85.000015
v 100.000000 64.500008 14.999985
v -99.999985 59.500004 15.000015
v -99.999985 64.500008 15.000015
v -100.000000 59.499996 -84.999985
v -100.000000 64.499992 -84.999985
vn -1.000000 0.000000 0.000000
vn 0.000000 0.000000 1.000000
vn 1.000000 0.000000 0.000000
vn 0.000000 0.000000 -1.000000
vn 0.000000 1.000000 0.000000
vn 0.000000 -1.000000 0.000000
vn -0.000700 0.000000 1.000000
vt 0.625000 0.000000
vt 0.375000 0.250000
vt 0.375000 0.000000
vt 0.625000 0.250000
vt 0.375000 0.500000
vt 0.625000 0.500000
vt 0.375000 0.750000
vt 0.625000 0.750000
vt 0.375000 1.000000
vt 1.000000 0.000000
vt 0.000000 1.000000
vt 0.000000 0.000000
vt 0.875000 0.500000
vt 0.625000 1.000000
vt 1.000000 1.000000
vt 0.875000 0.750000
vt 0.125000 0.750000
vt 0.125000 0.500000
f 1/1/1 2/2/1 3/3/1
f 4/4/2 5/5/2 2/2/2
f 6/6/3 7/7/3 5/5/3
f 8/8/4 3/9/4 7/7/4
f 5/10/5 3/11/5 2/12/5
f 4/13/6 8/8/6 6/6/6
f 1/1/1 4/4/1 2/2/1
f 4/4/2 6/6/2 5/5/2
f 6/6/3 8/8/3 7/7/3
f 8/8/4 1/14/4 3/9/4
f 5/10/5 7/15/5 3/11/5
f 4/13/6 1/16/6 8/8/6
f 9/1/3 10/2/3 11/3/3
f 12/10/2 13/11/2 10/12/2
f 14/6/1 15/7/1 13/5/1
f 16/8/4 11/9/4 15/7/4
f 13/5/6 11/17/6 10/18/6
f 12/13/5 16/8/5 14/6/5
f 9/1/3 12/4/3 10/2/3
f 12/10/2 14/15/2 13/11/2
f 14/6/1 16/8/1 15/7/1
f 16/8/4 9/14/4 11/9/4
f 13/5/6 15/7/6 11/17/6
f 12/13/5 9/16/5 16/8/5
f 17/1/3 18/2/3 19/3/3
f 20/4/7 21/5/7 18/2/7
f 22/6/1 23/7/1 21/5/1
f 24/10/4 19/11/4 23/12/4
f 21/5/6 19/17/6 18/18/6
f 22/6/5 17/16/5 24/8/5
f 17/1/3 20/4/3 18/2/3
f 20/4/7 22/6/7 21/5/7
f 22/6/1 24/8/1 23/7/1
f 24/10/4 17/15/4 19/11/4
f 21/5/6 23/7/6 19/17/6
f 22/6/5 20/13/5 17/16/5
f 25/1/3 26/2/3 27/3/3
f 28/4/2 29/5/2 26/2/2
f 30/10/1 31/11/1 29/12/1
f 32/8/4 27/9/4 31/7/4
f 29/5/6 27/17/6 26/18/6
f 28/13/5 32/8/5 30/6/5
f 25/1/3 28/4/3 26/2/3
f 28/4/2 30/6/2 29/5/2
f 30/10/1 32/15/1 31/11/1
f 32/8/4 25/14/4 27/9/4
f 29/5/6 31/7/6 27/17/6
f 28/13/5 25/16/5 32/8/5
f 33/10/3 34/11/3 35/12/3
f 36/4/2 37/5/2 34/2/2
f 38/6/1 39/7/1 37/5/1
f 40/8/4 35/9/4 39/7/4
f 37/5/6 35/17/6 34/18/6
f 36/13/5 40/8/5 38/6/5
f 33/10/3 36/15/3 34/11/3
f 36/4/2 38/6/2 37/5/2
f 38/6/1 40/8/1 39/7/1
f 40/8/4 33/14/4 35/9/4
f 37/5/6 39/7/6 35/17/6
f 36/13/5 33/16/5 40/8/5
f 41/1/1 42/2/1 43/3/1
f 44/4/4 45/5/4 42/2/4
f 46/6/3 47/7/3 45/5/3
f 48/10/2 43/11/2 47/12/2
f 45/5/6 43/17/6 42/18/6
f 44/10/5 48/11/5 46/12/5
f 41/1/1 44/4/1 42/2/1
f 44/4/4 46/6/4 45/5/4
f 46/6/3 48/8/3 47/7/3
f 48/10/2 41/15/2 43/11/2
f 45/5/6 47/7/6 43/17/6
f 44/10/5 41/15/5 48/11/5
f 49/1/3 50/2/3 51/3/3
f 52/10/2 53/11/2 50/12/2
f 54/6/1 55/7/1 53/5/1
f 56/8/4 51/9/4 55/7/4
f 53/10/6 51/11/6 50/12/6
f 52/13/5 56/8/5 54/6/5
f 49/1/3 52/4/3 50/2/3
f 52/10/2 54/15/2 53/11/2
f 54/6/1 56/8/1 55/7/1
f 56/8/4 49/14/4 51/9/4
f 53/10/6 55/15/6 51/11/6
f 52/13/5 49/16/5 56/8/5
